{"title":"Person.of.Interest.S05E13.1080p.WEB-DL.DD5.1.H264-RARBG","uid":15041205,"size":1741383363,"categoryP":"video","categoryS":"hd___tv_shows","magnet":"?xt=urn:btih:18136f9779cf08a3f74f40e6e9cf7999c9f802c5&amp;dn=Person.of.Interest.S05E13.1080p.WEB-DL.DD5.1.H264-RARBG&amp;tr=udp%3A%2F%2Ftracker.leechers-paradise.org%3A6969&amp;tr=udp%3A%2F%2Fzer0day.ch%3A1337&amp;tr=udp%3A%2F%2Fopen.demonii.com%3A1337&amp;tr=udp%3A%2F%2Ftracker.coppersurfer.tk%3A6969&amp;tr=udp%3A%2F%2Fexodus.desync.com%3A6969","seeders":5,"leechers":2,"uploader":"darkj6","files":3,"time":1466620657,"description":"Video\r\nID                                       : 1\r\nFormat                                   : AVC\r\nFormat/Info                              : Advanced Video Codec\r\nFormat profile                           :   \r\nFormat settings, CABAC                   : Yes\r\nFormat settings, ReFrames                : 4 frames\r\nCodec ID                                 : V_MPEG4/ISO/AVC\r\nDuration                                 : 43mn 37s\r\nBit rate                                 : 4 832 Kbps\r\nWidth                                    : 1 916 pixels\r\nHeight                                   : 1 076 pixels\r\nDisplay aspect ratio                     : 16:9\r\nFrame rate mode                          : Constant\r\nFrame rate                               : 23.976 fps\r\nColor space                              : YUV\r\nChroma subsampling                       : 4:2:0\r\nBit depth                                : 8 bits\r\nScan type                                : Progressive\r\nBits/(Pixel*Frame)                       : 0.098\r\nStream size                              : 1.47 GiB (91%)\r\nTitle                                    : Person.of.Interest.S05E13.1080p.WEB-DL.DD5.1.H264-RARBG\r\nLanguage                                 : English\r\nDefault                                  : Yes\r\nForced                                   : No\r\nColor range                              : Limited\r\nColor primaries                          : BT.709\r\nTransfer characteristics                 : BT.709\r\nMatrix coefficients                      : BT.709\r\n\r\nAudio\r\nID                                       : 2\r\nFormat                                   : AC-3\r\nFormat/Info                              : Audio Coding 3\r\nMode extension                           : CM (complete main)\r\nFormat settings, Endianness              : Big\r\nCodec ID                                 : A_AC3\r\nDuration                                 : 43mn 37s\r\nBit rate mode                            : Constant\r\nBit rate                                 : 384 Kbps\r\nChannel(s)                               : 6 channels\r\nChannel positions                        : Front: L C R, Side: L R, LFE\r\nSampling rate                            : 48.0 KHz\r\nFrame rate                               : 31.250 fps (1536 spf)\r\nCompression mode                         : Lossy\r\nStream size                              : 120 MiB (7%)\r\nTitle                                    : Person.of.Interest.S05E13.1080p.WEB-DL.DD5.1.H264-RARBG\r\nLanguage                                 : English\r\nDefault                                  : Yes\r\nForced                                   : No\r\n\r\nText\r\nID                                       : 3\r\nFormat                                   : UTF-8\r\nCodec ID                                 : S_TEXT/UTF8\r\nCodec ID/Info                            : UTF-8 Plain Text\r\nDefault                                  : Yes\r\nForced                                   : No","torrent":{"xt":"urn:btih:18136f9779cf08a3f74f40e6e9cf7999c9f802c5","amp;dn":"Person.of.Interest.S05E13.1080p.WEB-DL.DD5.1.H264-RARBG","amp;tr":["udp%3A%2F%2Ftracker.leechers-paradise.org%3A6969","udp%3A%2F%2Fzer0day.ch%3A1337","udp%3A%2F%2Fopen.demonii.com%3A1337","udp%3A%2F%2Ftracker.coppersurfer.tk%3A6969","udp%3A%2F%2Fexodus.desync.com%3A6969"],"infoHash":"18136f9779cf08a3f74f40e6e9cf7999c9f802c5","infoHashBuffer":{"type":"Buffer","data":[24,19,111,151,121,207,8,163,247,79,64,230,233,207,121,153,201,248,2,197]},"announce":[],"urlList":[]}}